<mxfile host="app.diagrams.net" modified="2023-11-12T12:00:54.001Z" agent="Mozilla/5.0 (Macintosh; Intel Mac OS X 10_15_7) AppleWebKit/537.36 (KHTML, like Gecko) Chrome/119.0.0.0 Safari/537.36" etag="NZ9re6McEoRrMbFpdHgi" version="22.1.0" type="github">
  <diagram name="Page-1" id="e7e014a7-5840-1c2e-5031-d8a46d1fe8dd">
    <mxGraphModel dx="1573" dy="748" grid="1" gridSize="10" guides="1" tooltips="1" connect="1" arrows="1" fold="1" page="1" pageScale="1" pageWidth="1169" pageHeight="826" background="none" math="0" shadow="0">
      <root>
        <mxCell id="0" />
        <mxCell id="1" parent="0" />
        <mxCell id="3" value="Communications API" style="swimlane;whiteSpace=wrap" parent="1" vertex="1">
          <mxGeometry x="1090" y="128" width="280" height="672" as="geometry" />
        </mxCell>
        <mxCell id="TOUtvnt5nsSUx-bd1a3a-50" value="Event &lt;br&gt;Bus" style="shape=cylinder3;whiteSpace=wrap;html=1;boundedLbl=1;backgroundOutline=1;size=15;lid=0;" vertex="1" parent="3">
          <mxGeometry x="110" y="32" width="60" height="618" as="geometry" />
        </mxCell>
        <mxCell id="TOUtvnt5nsSUx-bd1a3a-99" value="" style="endArrow=classic;startArrow=classic;html=1;rounded=0;entryX=-0.074;entryY=0.128;entryDx=0;entryDy=0;entryPerimeter=0;exitX=1;exitY=1;exitDx=0;exitDy=0;" edge="1" parent="3">
          <mxGeometry width="50" height="50" relative="1" as="geometry">
            <mxPoint x="-170.5" y="593" as="sourcePoint" />
            <mxPoint x="105.5" y="592" as="targetPoint" />
          </mxGeometry>
        </mxCell>
        <mxCell id="TOUtvnt5nsSUx-bd1a3a-98" value="" style="endArrow=classic;startArrow=classic;html=1;rounded=0;entryX=-0.074;entryY=0.128;entryDx=0;entryDy=0;entryPerimeter=0;exitX=1;exitY=1;exitDx=0;exitDy=0;" edge="1" parent="3">
          <mxGeometry width="50" height="50" relative="1" as="geometry">
            <mxPoint x="-170" y="513" as="sourcePoint" />
            <mxPoint x="106" y="512" as="targetPoint" />
          </mxGeometry>
        </mxCell>
        <mxCell id="TOUtvnt5nsSUx-bd1a3a-97" value="" style="endArrow=classic;startArrow=classic;html=1;rounded=0;entryX=-0.074;entryY=0.128;entryDx=0;entryDy=0;entryPerimeter=0;exitX=1;exitY=1;exitDx=0;exitDy=0;" edge="1" parent="3">
          <mxGeometry width="50" height="50" relative="1" as="geometry">
            <mxPoint x="-170" y="433" as="sourcePoint" />
            <mxPoint x="106" y="432" as="targetPoint" />
          </mxGeometry>
        </mxCell>
        <mxCell id="TOUtvnt5nsSUx-bd1a3a-96" value="" style="endArrow=classic;startArrow=classic;html=1;rounded=0;entryX=-0.074;entryY=0.128;entryDx=0;entryDy=0;entryPerimeter=0;exitX=1;exitY=1;exitDx=0;exitDy=0;" edge="1" parent="3">
          <mxGeometry width="50" height="50" relative="1" as="geometry">
            <mxPoint x="-170" y="353" as="sourcePoint" />
            <mxPoint x="106" y="352" as="targetPoint" />
          </mxGeometry>
        </mxCell>
        <mxCell id="TOUtvnt5nsSUx-bd1a3a-94" value="" style="endArrow=classic;startArrow=classic;html=1;rounded=0;entryX=-0.074;entryY=0.128;entryDx=0;entryDy=0;entryPerimeter=0;exitX=1;exitY=1;exitDx=0;exitDy=0;" edge="1" parent="3">
          <mxGeometry width="50" height="50" relative="1" as="geometry">
            <mxPoint x="-170" y="193" as="sourcePoint" />
            <mxPoint x="106" y="192" as="targetPoint" />
          </mxGeometry>
        </mxCell>
        <mxCell id="4" value="Microservices" style="swimlane;whiteSpace=wrap" parent="1" vertex="1">
          <mxGeometry x="724.5" y="128" width="365.5" height="672" as="geometry" />
        </mxCell>
        <mxCell id="TOUtvnt5nsSUx-bd1a3a-86" style="edgeStyle=orthogonalEdgeStyle;rounded=0;orthogonalLoop=1;jettySize=auto;html=1;entryX=0;entryY=0.5;entryDx=0;entryDy=0;" edge="1" parent="4" source="33" target="TOUtvnt5nsSUx-bd1a3a-58">
          <mxGeometry relative="1" as="geometry" />
        </mxCell>
        <mxCell id="33" value="Watch List" style="" parent="4" vertex="1">
          <mxGeometry x="85" y="382" width="110" height="50" as="geometry" />
        </mxCell>
        <mxCell id="TOUtvnt5nsSUx-bd1a3a-85" style="edgeStyle=orthogonalEdgeStyle;rounded=0;orthogonalLoop=1;jettySize=auto;html=1;entryX=0;entryY=0.5;entryDx=0;entryDy=0;" edge="1" parent="4" source="TOUtvnt5nsSUx-bd1a3a-46" target="TOUtvnt5nsSUx-bd1a3a-59">
          <mxGeometry relative="1" as="geometry" />
        </mxCell>
        <mxCell id="TOUtvnt5nsSUx-bd1a3a-46" value="Sell" style="" vertex="1" parent="4">
          <mxGeometry x="85" y="302" width="110" height="50" as="geometry" />
        </mxCell>
        <mxCell id="TOUtvnt5nsSUx-bd1a3a-84" style="edgeStyle=orthogonalEdgeStyle;rounded=0;orthogonalLoop=1;jettySize=auto;html=1;entryX=0;entryY=0.5;entryDx=0;entryDy=0;" edge="1" parent="4" source="TOUtvnt5nsSUx-bd1a3a-45" target="TOUtvnt5nsSUx-bd1a3a-60">
          <mxGeometry relative="1" as="geometry" />
        </mxCell>
        <mxCell id="TOUtvnt5nsSUx-bd1a3a-45" value="Stay Connected" style="" vertex="1" parent="4">
          <mxGeometry x="85" y="222" width="110" height="50" as="geometry" />
        </mxCell>
        <mxCell id="TOUtvnt5nsSUx-bd1a3a-83" style="edgeStyle=orthogonalEdgeStyle;rounded=0;orthogonalLoop=1;jettySize=auto;html=1;entryX=0;entryY=0.5;entryDx=0;entryDy=0;" edge="1" parent="4" source="TOUtvnt5nsSUx-bd1a3a-44" target="TOUtvnt5nsSUx-bd1a3a-61">
          <mxGeometry relative="1" as="geometry" />
        </mxCell>
        <mxCell id="TOUtvnt5nsSUx-bd1a3a-44" value="Shipping" style="" vertex="1" parent="4">
          <mxGeometry x="85" y="142" width="110" height="50" as="geometry" />
        </mxCell>
        <mxCell id="TOUtvnt5nsSUx-bd1a3a-68" style="edgeStyle=orthogonalEdgeStyle;rounded=0;orthogonalLoop=1;jettySize=auto;html=1;entryX=0;entryY=0.5;entryDx=0;entryDy=0;" edge="1" parent="4" source="TOUtvnt5nsSUx-bd1a3a-43" target="TOUtvnt5nsSUx-bd1a3a-52">
          <mxGeometry relative="1" as="geometry" />
        </mxCell>
        <mxCell id="TOUtvnt5nsSUx-bd1a3a-43" value="Shopping Cart" style="" vertex="1" parent="4">
          <mxGeometry x="85" y="62" width="110" height="50" as="geometry" />
        </mxCell>
        <mxCell id="TOUtvnt5nsSUx-bd1a3a-87" style="edgeStyle=orthogonalEdgeStyle;rounded=0;orthogonalLoop=1;jettySize=auto;html=1;entryX=0;entryY=0.5;entryDx=0;entryDy=0;" edge="1" parent="4" source="TOUtvnt5nsSUx-bd1a3a-42" target="TOUtvnt5nsSUx-bd1a3a-57">
          <mxGeometry relative="1" as="geometry" />
        </mxCell>
        <mxCell id="TOUtvnt5nsSUx-bd1a3a-42" value="Find a Store" style="" vertex="1" parent="4">
          <mxGeometry x="85" y="462" width="110" height="50" as="geometry" />
        </mxCell>
        <mxCell id="TOUtvnt5nsSUx-bd1a3a-88" style="edgeStyle=orthogonalEdgeStyle;rounded=0;orthogonalLoop=1;jettySize=auto;html=1;entryX=0;entryY=0.5;entryDx=0;entryDy=0;" edge="1" parent="4" source="TOUtvnt5nsSUx-bd1a3a-48" target="TOUtvnt5nsSUx-bd1a3a-56">
          <mxGeometry relative="1" as="geometry" />
        </mxCell>
        <mxCell id="TOUtvnt5nsSUx-bd1a3a-48" value="Help" style="" vertex="1" parent="4">
          <mxGeometry x="85" y="542" width="110" height="50" as="geometry" />
        </mxCell>
        <mxCell id="TOUtvnt5nsSUx-bd1a3a-52" value="&lt;br&gt;DB" style="shape=datastore;whiteSpace=wrap;html=1;" vertex="1" parent="4">
          <mxGeometry x="255.5" y="73" width="44.5" height="28" as="geometry" />
        </mxCell>
        <mxCell id="TOUtvnt5nsSUx-bd1a3a-61" value="&lt;br&gt;DB" style="shape=datastore;whiteSpace=wrap;html=1;" vertex="1" parent="4">
          <mxGeometry x="255.5" y="153" width="44.5" height="28" as="geometry" />
        </mxCell>
        <mxCell id="TOUtvnt5nsSUx-bd1a3a-60" value="&lt;br&gt;DB" style="shape=datastore;whiteSpace=wrap;html=1;" vertex="1" parent="4">
          <mxGeometry x="255.5" y="233" width="44.5" height="28" as="geometry" />
        </mxCell>
        <mxCell id="TOUtvnt5nsSUx-bd1a3a-59" value="&lt;br&gt;DB" style="shape=datastore;whiteSpace=wrap;html=1;" vertex="1" parent="4">
          <mxGeometry x="255.5" y="313" width="44.5" height="28" as="geometry" />
        </mxCell>
        <mxCell id="TOUtvnt5nsSUx-bd1a3a-58" value="&lt;br&gt;DB" style="shape=datastore;whiteSpace=wrap;html=1;" vertex="1" parent="4">
          <mxGeometry x="255.5" y="393" width="44.5" height="28" as="geometry" />
        </mxCell>
        <mxCell id="TOUtvnt5nsSUx-bd1a3a-57" value="&lt;br&gt;DB" style="shape=datastore;whiteSpace=wrap;html=1;" vertex="1" parent="4">
          <mxGeometry x="255.5" y="473" width="44.5" height="28" as="geometry" />
        </mxCell>
        <mxCell id="TOUtvnt5nsSUx-bd1a3a-56" value="&lt;br&gt;DB" style="shape=datastore;whiteSpace=wrap;html=1;" vertex="1" parent="4">
          <mxGeometry x="255.5" y="553" width="44.5" height="28" as="geometry" />
        </mxCell>
        <mxCell id="TOUtvnt5nsSUx-bd1a3a-95" value="" style="endArrow=classic;startArrow=classic;html=1;rounded=0;entryX=-0.074;entryY=0.128;entryDx=0;entryDy=0;entryPerimeter=0;exitX=1;exitY=1;exitDx=0;exitDy=0;" edge="1" parent="4">
          <mxGeometry width="50" height="50" relative="1" as="geometry">
            <mxPoint x="195" y="273" as="sourcePoint" />
            <mxPoint x="471" y="272" as="targetPoint" />
          </mxGeometry>
        </mxCell>
        <mxCell id="TOUtvnt5nsSUx-bd1a3a-151" value="" style="endArrow=classic;html=1;rounded=0;" edge="1" parent="4">
          <mxGeometry width="50" height="50" relative="1" as="geometry">
            <mxPoint x="35" y="246.5" as="sourcePoint" />
            <mxPoint x="85" y="246.5" as="targetPoint" />
          </mxGeometry>
        </mxCell>
        <mxCell id="TOUtvnt5nsSUx-bd1a3a-154" value="" style="endArrow=classic;html=1;rounded=0;" edge="1" parent="4">
          <mxGeometry width="50" height="50" relative="1" as="geometry">
            <mxPoint x="35" y="566.5" as="sourcePoint" />
            <mxPoint x="85" y="566.5" as="targetPoint" />
          </mxGeometry>
        </mxCell>
        <mxCell id="TOUtvnt5nsSUx-bd1a3a-155" value="" style="endArrow=classic;html=1;rounded=0;" edge="1" parent="4">
          <mxGeometry width="50" height="50" relative="1" as="geometry">
            <mxPoint x="35" y="486.5" as="sourcePoint" />
            <mxPoint x="85" y="486.5" as="targetPoint" />
          </mxGeometry>
        </mxCell>
        <mxCell id="TOUtvnt5nsSUx-bd1a3a-152" value="" style="endArrow=classic;html=1;rounded=0;" edge="1" parent="4">
          <mxGeometry width="50" height="50" relative="1" as="geometry">
            <mxPoint x="35" y="172" as="sourcePoint" />
            <mxPoint x="85" y="172" as="targetPoint" />
          </mxGeometry>
        </mxCell>
        <mxCell id="TOUtvnt5nsSUx-bd1a3a-153" value="" style="endArrow=classic;html=1;rounded=0;" edge="1" parent="4">
          <mxGeometry width="50" height="50" relative="1" as="geometry">
            <mxPoint x="35" y="86.5" as="sourcePoint" />
            <mxPoint x="85" y="86.5" as="targetPoint" />
          </mxGeometry>
        </mxCell>
        <mxCell id="TOUtvnt5nsSUx-bd1a3a-158" value="" style="endArrow=classic;html=1;rounded=0;" edge="1" parent="4">
          <mxGeometry width="50" height="50" relative="1" as="geometry">
            <mxPoint x="35" y="406.5" as="sourcePoint" />
            <mxPoint x="85" y="406.5" as="targetPoint" />
          </mxGeometry>
        </mxCell>
        <mxCell id="TOUtvnt5nsSUx-bd1a3a-159" value="" style="endArrow=classic;html=1;rounded=0;" edge="1" parent="4">
          <mxGeometry width="50" height="50" relative="1" as="geometry">
            <mxPoint x="-24.5" y="327" as="sourcePoint" />
            <mxPoint x="85" y="326.5" as="targetPoint" />
          </mxGeometry>
        </mxCell>
        <mxCell id="TOUtvnt5nsSUx-bd1a3a-41" value="&lt;font style=&quot;font-size: 24px;&quot;&gt;EBAY CLUSTER VISULISATION&lt;/font&gt;" style="text;html=1;strokeColor=none;fillColor=none;align=center;verticalAlign=middle;whiteSpace=wrap;rounded=0;" vertex="1" parent="1">
          <mxGeometry x="500" y="40" width="480" height="30" as="geometry" />
        </mxCell>
        <mxCell id="TOUtvnt5nsSUx-bd1a3a-189" style="edgeStyle=orthogonalEdgeStyle;rounded=0;orthogonalLoop=1;jettySize=auto;html=1;entryX=0;entryY=0.75;entryDx=0;entryDy=0;" edge="1" parent="1" source="TOUtvnt5nsSUx-bd1a3a-90" target="TOUtvnt5nsSUx-bd1a3a-129">
          <mxGeometry relative="1" as="geometry">
            <Array as="points">
              <mxPoint x="160" y="648" />
            </Array>
          </mxGeometry>
        </mxCell>
        <mxCell id="TOUtvnt5nsSUx-bd1a3a-90" value="" style="shape=actor;whiteSpace=wrap;html=1;" vertex="1" parent="1">
          <mxGeometry x="140" y="420" width="40" height="60" as="geometry" />
        </mxCell>
        <mxCell id="TOUtvnt5nsSUx-bd1a3a-91" value="User" style="text;html=1;strokeColor=none;fillColor=none;align=center;verticalAlign=middle;whiteSpace=wrap;rounded=0;" vertex="1" parent="1">
          <mxGeometry x="130" y="340" width="60" height="30" as="geometry" />
        </mxCell>
        <mxCell id="TOUtvnt5nsSUx-bd1a3a-93" value="" style="endArrow=classic;startArrow=classic;html=1;rounded=0;entryX=-0.074;entryY=0.128;entryDx=0;entryDy=0;entryPerimeter=0;exitX=1;exitY=1;exitDx=0;exitDy=0;" edge="1" parent="1" source="TOUtvnt5nsSUx-bd1a3a-43" target="TOUtvnt5nsSUx-bd1a3a-50">
          <mxGeometry width="50" height="50" relative="1" as="geometry">
            <mxPoint x="1070" y="290" as="sourcePoint" />
            <mxPoint x="1120" y="240" as="targetPoint" />
          </mxGeometry>
        </mxCell>
        <mxCell id="TOUtvnt5nsSUx-bd1a3a-106" value="Core Microservices" style="swimlane;whiteSpace=wrap" vertex="1" parent="1">
          <mxGeometry x="359" y="128" width="365.5" height="672" as="geometry" />
        </mxCell>
        <mxCell id="TOUtvnt5nsSUx-bd1a3a-192" style="edgeStyle=orthogonalEdgeStyle;rounded=0;orthogonalLoop=1;jettySize=auto;html=1;entryX=0;entryY=0.75;entryDx=0;entryDy=0;" edge="1" parent="TOUtvnt5nsSUx-bd1a3a-106" source="TOUtvnt5nsSUx-bd1a3a-64" target="TOUtvnt5nsSUx-bd1a3a-63">
          <mxGeometry relative="1" as="geometry">
            <Array as="points">
              <mxPoint x="76" y="341" />
            </Array>
          </mxGeometry>
        </mxCell>
        <mxCell id="TOUtvnt5nsSUx-bd1a3a-197" value="Verification&lt;br&gt;Response" style="edgeLabel;html=1;align=center;verticalAlign=middle;resizable=0;points=[];" vertex="1" connectable="0" parent="TOUtvnt5nsSUx-bd1a3a-192">
          <mxGeometry x="-0.172" relative="1" as="geometry">
            <mxPoint as="offset" />
          </mxGeometry>
        </mxCell>
        <mxCell id="TOUtvnt5nsSUx-bd1a3a-64" value="Authorisation" style="" vertex="1" parent="TOUtvnt5nsSUx-bd1a3a-106">
          <mxGeometry x="21" y="166" width="110" height="50" as="geometry" />
        </mxCell>
        <mxCell id="TOUtvnt5nsSUx-bd1a3a-164" style="edgeStyle=orthogonalEdgeStyle;rounded=0;orthogonalLoop=1;jettySize=auto;html=1;" edge="1" parent="TOUtvnt5nsSUx-bd1a3a-106" source="TOUtvnt5nsSUx-bd1a3a-63">
          <mxGeometry relative="1" as="geometry">
            <mxPoint x="260.5" y="222" as="targetPoint" />
          </mxGeometry>
        </mxCell>
        <mxCell id="TOUtvnt5nsSUx-bd1a3a-175" value="Query" style="edgeLabel;html=1;align=center;verticalAlign=middle;resizable=0;points=[];" vertex="1" connectable="0" parent="TOUtvnt5nsSUx-bd1a3a-164">
          <mxGeometry x="-0.0276" y="-1" relative="1" as="geometry">
            <mxPoint x="1" as="offset" />
          </mxGeometry>
        </mxCell>
        <mxCell id="TOUtvnt5nsSUx-bd1a3a-191" style="edgeStyle=orthogonalEdgeStyle;rounded=0;orthogonalLoop=1;jettySize=auto;html=1;exitX=0;exitY=0.25;exitDx=0;exitDy=0;" edge="1" parent="TOUtvnt5nsSUx-bd1a3a-106" source="TOUtvnt5nsSUx-bd1a3a-63">
          <mxGeometry relative="1" as="geometry">
            <mxPoint x="121" y="222" as="targetPoint" />
          </mxGeometry>
        </mxCell>
        <mxCell id="TOUtvnt5nsSUx-bd1a3a-196" value="Verifiication&lt;br&gt;Request" style="edgeLabel;html=1;align=center;verticalAlign=middle;resizable=0;points=[];" vertex="1" connectable="0" parent="TOUtvnt5nsSUx-bd1a3a-191">
          <mxGeometry x="0.4885" y="-1" relative="1" as="geometry">
            <mxPoint as="offset" />
          </mxGeometry>
        </mxCell>
        <mxCell id="TOUtvnt5nsSUx-bd1a3a-63" value="API Gateway" style="" vertex="1" parent="TOUtvnt5nsSUx-bd1a3a-106">
          <mxGeometry x="181" y="285" width="159" height="75" as="geometry" />
        </mxCell>
        <mxCell id="TOUtvnt5nsSUx-bd1a3a-65" value="Service Registry" style="" vertex="1" parent="TOUtvnt5nsSUx-bd1a3a-106">
          <mxGeometry x="241" y="162" width="110" height="58" as="geometry" />
        </mxCell>
        <mxCell id="TOUtvnt5nsSUx-bd1a3a-163" value="" style="endArrow=none;html=1;rounded=0;" edge="1" parent="TOUtvnt5nsSUx-bd1a3a-106">
          <mxGeometry width="50" height="50" relative="1" as="geometry">
            <mxPoint x="401" y="562" as="sourcePoint" />
            <mxPoint x="401" y="92" as="targetPoint" />
          </mxGeometry>
        </mxCell>
        <mxCell id="TOUtvnt5nsSUx-bd1a3a-166" value="" style="endArrow=classic;html=1;rounded=0;entryX=0.436;entryY=-0.034;entryDx=0;entryDy=0;entryPerimeter=0;" edge="1" parent="TOUtvnt5nsSUx-bd1a3a-106" target="TOUtvnt5nsSUx-bd1a3a-65">
          <mxGeometry width="50" height="50" relative="1" as="geometry">
            <mxPoint x="401" y="132" as="sourcePoint" />
            <mxPoint x="261" y="132" as="targetPoint" />
            <Array as="points">
              <mxPoint x="289" y="132" />
            </Array>
          </mxGeometry>
        </mxCell>
        <mxCell id="TOUtvnt5nsSUx-bd1a3a-177" value="MS registered" style="edgeLabel;html=1;align=center;verticalAlign=middle;resizable=0;points=[];" vertex="1" connectable="0" parent="TOUtvnt5nsSUx-bd1a3a-166">
          <mxGeometry x="-0.0145" relative="1" as="geometry">
            <mxPoint as="offset" />
          </mxGeometry>
        </mxCell>
        <mxCell id="TOUtvnt5nsSUx-bd1a3a-174" style="edgeStyle=orthogonalEdgeStyle;rounded=0;orthogonalLoop=1;jettySize=auto;html=1;exitX=0.75;exitY=1;exitDx=0;exitDy=0;entryX=0.893;entryY=-0.024;entryDx=0;entryDy=0;entryPerimeter=0;" edge="1" parent="TOUtvnt5nsSUx-bd1a3a-106" source="TOUtvnt5nsSUx-bd1a3a-65" target="TOUtvnt5nsSUx-bd1a3a-63">
          <mxGeometry relative="1" as="geometry" />
        </mxCell>
        <mxCell id="TOUtvnt5nsSUx-bd1a3a-176" value="MS Location" style="edgeLabel;html=1;align=center;verticalAlign=middle;resizable=0;points=[];" vertex="1" connectable="0" parent="TOUtvnt5nsSUx-bd1a3a-174">
          <mxGeometry x="0.0871" y="-1" relative="1" as="geometry">
            <mxPoint as="offset" />
          </mxGeometry>
        </mxCell>
        <mxCell id="TOUtvnt5nsSUx-bd1a3a-205" style="edgeStyle=orthogonalEdgeStyle;rounded=0;orthogonalLoop=1;jettySize=auto;html=1;" edge="1" parent="TOUtvnt5nsSUx-bd1a3a-106" source="TOUtvnt5nsSUx-bd1a3a-203">
          <mxGeometry relative="1" as="geometry">
            <mxPoint x="401" y="567" as="targetPoint" />
          </mxGeometry>
        </mxCell>
        <mxCell id="TOUtvnt5nsSUx-bd1a3a-203" value="Load Balancer" style="" vertex="1" parent="TOUtvnt5nsSUx-bd1a3a-106">
          <mxGeometry x="230" y="542" width="110" height="50" as="geometry" />
        </mxCell>
        <mxCell id="TOUtvnt5nsSUx-bd1a3a-194" style="edgeStyle=orthogonalEdgeStyle;rounded=0;orthogonalLoop=1;jettySize=auto;html=1;exitX=1;exitY=0.25;exitDx=0;exitDy=0;" edge="1" parent="1" source="TOUtvnt5nsSUx-bd1a3a-129">
          <mxGeometry relative="1" as="geometry">
            <mxPoint x="560" y="490" as="targetPoint" />
          </mxGeometry>
        </mxCell>
        <mxCell id="TOUtvnt5nsSUx-bd1a3a-201" value="HTTP Request" style="edgeLabel;html=1;align=center;verticalAlign=middle;resizable=0;points=[];" vertex="1" connectable="0" parent="TOUtvnt5nsSUx-bd1a3a-194">
          <mxGeometry x="-0.3291" y="-2" relative="1" as="geometry">
            <mxPoint as="offset" />
          </mxGeometry>
        </mxCell>
        <mxCell id="TOUtvnt5nsSUx-bd1a3a-129" value="Mobile or Desktop&#xa;Browser App" style="" vertex="1" parent="1">
          <mxGeometry x="210" y="610" width="110" height="50" as="geometry" />
        </mxCell>
        <mxCell id="TOUtvnt5nsSUx-bd1a3a-195" style="edgeStyle=orthogonalEdgeStyle;rounded=0;orthogonalLoop=1;jettySize=auto;html=1;entryX=1;entryY=0.75;entryDx=0;entryDy=0;" edge="1" parent="1" source="TOUtvnt5nsSUx-bd1a3a-63" target="TOUtvnt5nsSUx-bd1a3a-129">
          <mxGeometry relative="1" as="geometry">
            <Array as="points">
              <mxPoint x="620" y="648" />
              <mxPoint x="430" y="648" />
            </Array>
          </mxGeometry>
        </mxCell>
        <mxCell id="TOUtvnt5nsSUx-bd1a3a-202" value="HTTP Response" style="edgeLabel;html=1;align=center;verticalAlign=middle;resizable=0;points=[];" vertex="1" connectable="0" parent="TOUtvnt5nsSUx-bd1a3a-195">
          <mxGeometry x="0.4434" y="1" relative="1" as="geometry">
            <mxPoint as="offset" />
          </mxGeometry>
        </mxCell>
      </root>
    </mxGraphModel>
  </diagram>
</mxfile>
